# xmcd CD database file
#
# Track frame offsets:
#	150
#	11020
#	21930
#	33960
#	45487
#	65691
#	85556
#	96711
#	112527
#	125154
#	141738
#	159140
#	171537
#	183811
#	195264
#	210699
#	222498
#	244437
#	258436
#
# Disc length: 3637 seconds
#
# Revision: 0
# Processed by: cddbd v1.5.2PL0 Copyright (c) Steve Scherf et al.
# Submitted via: CDex 1.51
#
DISCID=110e3313
DTITLE=Holland Rhythm Company - Be Gentle...It's Our First Time
DYEAR=2003
DGENRE=Jazz
TTITLE0=Shakin' the Blues Away
TTITLE1=Harlem Fuse
TTITLE2=The Joint is Jumpin'
TTITLE3=Dill Pickles
TTITLE4=Do You Know What it Means to Miss New Orleans
TTITLE5=Wolverine Blues
TTITLE6=Doll Dance
TTITLE7=At the Jazz Band Ball
TTITLE8=Wang Wang Blues
TTITLE9=Honky Tonk Train Blues
TTITLE10=Louisiana
TTITLE11=Cakewalkin' Babies From Home
TTITLE12=Russian Rag
TTITLE13=I'm Crazy 'Bout My Baby
TTITLE14=Louisiana Fairytale
TTITLE15=Lulu's Back in Town
TTITLE16=St. Louis Blues
TTITLE17=Stars and Stripes Forever
TTITLE18=Yes Sir, That's My Baby
EXTD=YEAR: 2003
EXTT0=
EXTT1=
EXTT2=
EXTT3=
EXTT4=
EXTT5=
EXTT6=
EXTT7=
EXTT8=
EXTT9=
EXTT10=
EXTT11=
EXTT12=
EXTT13=
EXTT14=
EXTT15=
EXTT16=
EXTT17=
EXTT18=
PLAYORDER=
